# xmcd
#
# Track frame offsets:
#	150
#	17058
#	32699
#	52413
#	71539
#	89669
#	106992
#	127621
#	147132
#
# Disc length: 2223 seconds
#
# Revision: 2
# Processed by: cddbd v1.5.2PL0 Copyright (c) Steve Scherf et al.
# Submitted via: audiograbber 1.83.01
#
DISCID=7808ad09
DTITLE=Foeticide - Embrace of Death
DYEAR=2005
DGENRE=Death Metal
TTITLE0=Intro
TTITLE1=Lost in the Black
TTITLE2=In the Flames of Hate
TTITLE3=Prisoner of Death
TTITLE4=Into the Light
TTITLE5=Embrace of Death
TTITLE6=Lifeless Seas
TTITLE7=Sign of Hate
TTITLE8=Grave of the Night
EXTD=
EXTT0=
EXTT1=
EXTT2=
EXTT3=
EXTT4=
EXTT5=
EXTT6=
EXTT7=
EXTT8=
PLAYORDER=
